<svg xmlns="http://www.w3.org/2000/svg" viewBox="0 0 900 500" role="img" aria-label="Matchroom 스타일 구상 · 미구현"><defs><pattern id="grid-2" width="30" height="30" patternUnits="userSpaceOnUse"><path d="M30 0H0V30" fill="none" stroke="#9bb3c1" stroke-opacity=".12"/></pattern></defs><g font-family="Malgun Gothic,Segoe UI,sans-serif"><rect x="0" y="0" width="900" height="500" rx="0" fill="#151f28" stroke="none"/><rect x="0" y="0" width="900" height="465" rx="0" fill="#151f28" stroke="none"/><path d="M0 455L370 122H530L900 455Z" fill="#29343c" stroke="none" stroke-width="2" /><line x1="20" y1="460" x2="412" y2="122" stroke="#3b4b54" stroke-width="1" /><line x1="0" y1="170" x2="900" y2="170" stroke="#364751" stroke-width="1" /><line x1="143" y1="460" x2="424" y2="122" stroke="#3b4b54" stroke-width="1" /><line x1="0" y1="210" x2="900" y2="210" stroke="#364751" stroke-width="1" /><line x1="266" y1="460" x2="436" y2="122" stroke="#3b4b54" stroke-width="1" /><line x1="0" y1="250" x2="900" y2="250" stroke="#364751" stroke-width="1" /><line x1="389" y1="460" x2="448" y2="122" stroke="#3b4b54" stroke-width="1" /><line x1="0" y1="290" x2="900" y2="290" stroke="#364751" stroke-width="1" /><line x1="512" y1="460" x2="460" y2="122" stroke="#3b4b54" stroke-width="1" /><line x1="0" y1="330" x2="900" y2="330" stroke="#364751" stroke-width="1" /><line x1="635" y1="460" x2="472" y2="122" stroke="#3b4b54" stroke-width="1" /><line x1="0" y1="370" x2="900" y2="370" stroke="#364751" stroke-width="1" /><line x1="758" y1="460" x2="484" y2="122" stroke="#3b4b54" stroke-width="1" /><line x1="0" y1="410" x2="900" y2="410" stroke="#364751" stroke-width="1" /><line x1="881" y1="460" x2="496" y2="122" stroke="#3b4b54" stroke-width="1" /><line x1="0" y1="450" x2="900" y2="450" stroke="#364751" stroke-width="1" /><text x="27" y="34" font-size="13" fill="#90aabd" font-weight="650" text-anchor="start">DIGITAL TWIN / LINE 03</text><text x="28" y="65" font-size="24" fill="#e5edf0" font-weight="600" text-anchor="start">3자 대조 공정</text><path d="M165 329L425 191L759 328L494 435Z" fill="#21313b" stroke="#5c8498" stroke-width="2" /><path d="M235 333L435 231L679 332L479 387Z" fill="#3b5664" stroke="#91c1d5" stroke-width="2" /><path d="M272,199 l93,-46.5 l64,32 l-93,46.5 Z" fill="#5d869c" stroke="#7d8c7c" stroke-width="1" /><path d="M272,199 l64,32 v81 l-64,-32 Z" fill="#304c5b" stroke="#7d8c7c" stroke-width="1" /><path d="M336,231 l93,-46.5 v81 l-93,46.5 Z" fill="#203a49" stroke="#7d8c7c" stroke-width="1" /><path d="M460,208 l95,-47.5 l64,32 l-95,47.5 Z" fill="#4d9c8a" stroke="#7d8c7c" stroke-width="1" /><path d="M460,208 l64,32 v80 l-64,-32 Z" fill="#27645a" stroke="#7d8c7c" stroke-width="1" /><path d="M524,240 l95,-47.5 v80 l-95,47.5 Z" fill="#1c4c44" stroke="#7d8c7c" stroke-width="1" /><path d="M632,257 l78,-39 l51,25.5 l-78,39 Z" fill="#c4915c" stroke="#7d8c7c" stroke-width="1" /><path d="M632,257 l51,25.5 v83 l-51,-25.5 Z" fill="#8a603d" stroke="#7d8c7c" stroke-width="1" /><path d="M683,282.5 l78,-39 v83 l-78,39 Z" fill="#60482f" stroke="#7d8c7c" stroke-width="1" /><path d="M280 283L355 335L484 277L578 332L641 309" fill="none" stroke="#6be2c3" stroke-width="5" /><text x="70" y="162" font-size="19" fill="#b8d4e2" font-weight="650" text-anchor="start">PO / INPUT</text><text x="70" y="186" font-size="13" fill="#b8d4e2" font-weight="400" text-anchor="start">발주 100개</text><text x="394" y="140" font-size="19" fill="#8cdbc8" font-weight="650" text-anchor="start">RECEIPT / SCAN</text><text x="394" y="164" font-size="13" fill="#8cdbc8" font-weight="400" text-anchor="start">실제 입고 80개</text><text x="690" y="180" font-size="19" fill="#f2c195" font-weight="650" text-anchor="start">INVOICE / CHECK</text><text x="690" y="204" font-size="13" fill="#f2c195" font-weight="400" text-anchor="start">청구 100개</text><line x1="194" y1="180" x2="290" y2="240" stroke="#709eb3" stroke-width="1" /><line x1="503" y1="156" x2="514" y2="219" stroke="#709eb3" stroke-width="1" /><line x1="730" y1="209" x2="712" y2="258" stroke="#709eb3" stroke-width="1" /><rect x="28" y="379" width="205" height="59" rx="2" fill="#172a34" stroke="#477087"/><text x="40" y="403" font-size="17" fill="#e2a46d" font-weight="650" text-anchor="start">EXCEPTION / Δ20</text><text x="40" y="425" font-size="13" fill="#a9c6d4" font-weight="400" text-anchor="start">사람 승인 게이트 잠김</text><rect x="721" y="378" width="143" height="59" rx="2" fill="#153c34" stroke="#63c7af"/><text x="733" y="403" font-size="14" fill="#89e6cc" font-weight="650" text-anchor="start">HUMAN REVIEW</text><text x="733" y="425" font-size="12" fill="#aed5cf" font-weight="400" text-anchor="start">근거 확인 → 승인</text><rect x="0" y="465" width="900" height="35" rx="0" fill="#151f28" stroke="none"/><line x1="20" y1="464" x2="880" y2="464" stroke="#9bb3c1" stroke-width="1" /><text x="22" y="487" font-size="11" fill="#9bb3c1" font-weight="600" text-anchor="start">스타일 구상 · 미구현</text><text x="878" y="487" font-size="11" fill="#9bb3c1" font-weight="400" text-anchor="end">예시: 발주 100 · 입고 80 · 청구 100 / 단가 10,000 → 10,800원</text></g></svg>