<svg xmlns="http://www.w3.org/2000/svg" viewBox="0 0 900 500" role="img" aria-label="Matchroom 스타일 구상 · 미구현"><defs><pattern id="grid-4" width="30" height="30" patternUnits="userSpaceOnUse"><path d="M30 0H0V30" fill="none" stroke="#4a6152" stroke-opacity=".12"/></pattern></defs><g font-family="Malgun Gothic,Segoe UI,sans-serif"><rect x="0" y="0" width="900" height="500" rx="0" fill="#e4e6d9" stroke="none"/><rect x="24" y="24" width="852" height="417" rx="3" fill="#f7f5ea" stroke="#3c4f44"/><rect x="24" y="24" width="852" height="42" rx="0" fill="#3c4f44" stroke="none"/><text x="45" y="52" font-size="20" fill="#f7f5ea" font-weight="600" text-anchor="start">MATCHROOM / TOP VIEW — 검토 작업장</text><rect x="50" y="90" width="218" height="150" rx="0" fill="#e2e3d3" stroke="#778477"/><rect x="50" y="257" width="218" height="155" rx="0" fill="#efe6d0" stroke="#778477"/><rect x="296" y="90" width="327" height="322" rx="0" fill="#eef1e5" stroke="#778477"/><rect x="650" y="90" width="199" height="145" rx="0" fill="#dce8dd" stroke="#778477"/><rect x="650" y="257" width="199" height="155" rx="0" fill="#f0dbb9" stroke="#9c7855"/><text x="66" y="121" font-size="19" fill="#344d42" font-weight="650" text-anchor="start">01 발주 보관실</text><text x="66" y="145" font-size="13" fill="#344d42" font-weight="400" text-anchor="start">PO · 100개 / 10,000원</text><text x="66" y="288" font-size="19" fill="#344d42" font-weight="650" text-anchor="start">02 입고 검사실</text><text x="66" y="312" font-size="13" fill="#344d42" font-weight="400" text-anchor="start">RECEIPT · 80개</text><text x="666" y="121" font-size="19" fill="#344d42" font-weight="650" text-anchor="start">청구 접수실</text><text x="666" y="145" font-size="13" fill="#344d42" font-weight="400" text-anchor="start">INVOICE · 100개</text><rect x="69" y="160" width="71" height="14" rx="0" fill="#c0c7b4" stroke="#8e9b83"/><rect x="159" y="160" width="79" height="14" rx="0" fill="#c0c7b4" stroke="#8e9b83"/><rect x="69" y="181" width="71" height="14" rx="0" fill="#c0c7b4" stroke="#8e9b83"/><rect x="159" y="181" width="79" height="14" rx="0" fill="#c0c7b4" stroke="#8e9b83"/><rect x="69" y="202" width="71" height="14" rx="0" fill="#c0c7b4" stroke="#8e9b83"/><rect x="159" y="202" width="79" height="14" rx="0" fill="#c0c7b4" stroke="#8e9b83"/><rect x="69" y="332" width="31" height="48" rx="0" fill="#d4b889" stroke="#aa9066"/><rect x="111" y="332" width="31" height="48" rx="0" fill="#d4b889" stroke="#aa9066"/><rect x="153" y="332" width="31" height="48" rx="0" fill="#d4b889" stroke="#aa9066"/><rect x="195" y="332" width="31" height="48" rx="0" fill="#d4b889" stroke="#aa9066"/><rect x="360" y="166" width="190" height="99" rx="8" fill="#cadbc9" stroke="#638a68"/><text x="455" y="207" font-size="21" fill="#345640" font-weight="650" text-anchor="middle">3자 대조 테이블</text><text x="455" y="233" font-size="14" fill="#55725e" font-weight="400" text-anchor="middle">수량 × 단가 × 원본 근거</text><path d="M266 158H325V208H360M268 334H326V238H360M650 177H597V208H550" fill="none" stroke="#617d64" stroke-width="4" /><path d="M456 265V334H650" fill="none" stroke="#b68149" stroke-width="4" /><text x="666" y="287" font-size="19" fill="#815726" font-weight="650" text-anchor="start">예외 격리 구역</text><text x="666" y="319" font-size="18" fill="#815726" font-weight="400" text-anchor="start">不足 20개</text><text x="666" y="345" font-size="14" fill="#815726" font-weight="400" text-anchor="start">단가 차이 +800원</text><rect x="676" y="370" width="145" height="25" rx="0" fill="#815726" stroke="none"/><text x="748" y="389" font-size="13" fill="#fff" font-weight="600" text-anchor="middle">사람 승인 대기</text><text x="329" y="386" font-size="14" fill="#6e7f6b" font-weight="400" text-anchor="start">동선이 곧 문서 대조 순서</text><rect x="0" y="465" width="900" height="35" rx="0" fill="#e4e6d9" stroke="none"/><line x1="20" y1="464" x2="880" y2="464" stroke="#4a6152" stroke-width="1" /><text x="22" y="487" font-size="11" fill="#4a6152" font-weight="600" text-anchor="start">스타일 구상 · 미구현</text><text x="878" y="487" font-size="11" fill="#4a6152" font-weight="400" text-anchor="end">예시: 발주 100 · 입고 80 · 청구 100 / 단가 10,000 → 10,800원</text></g></svg>