<svg xmlns="http://www.w3.org/2000/svg" viewBox="0 0 900 500" role="img" aria-label="Matchroom 스타일 구상 · 미구현"><defs><pattern id="grid-11" width="30" height="30" patternUnits="userSpaceOnUse"><path d="M30 0H0V30" fill="none" stroke="#57797b" stroke-opacity=".12"/></pattern></defs><g font-family="Malgun Gothic,Segoe UI,sans-serif"><rect x="0" y="0" width="900" height="500" rx="0" fill="#f4f6ef" stroke="none"/><rect x="0" y="0" width="900" height="465" rx="0" fill="url(#grid-11)" stroke="none"/><text x="27" y="40" font-size="23" fill="#284d55" font-weight="650" text-anchor="start">DOCUMENT CIRCUIT / 근거 배선도</text><text x="28" y="68" font-size="14" fill="#728587" font-weight="400" text-anchor="start">대조 결과까지 연결되는 원본 경로</text><rect x="40" y="106" width="163" height="105" rx="3" fill="#f8faf6" stroke="#497983"/><rect x="53" y="119" width="24" height="5" rx="0" fill="#497983" stroke="none"/><text x="53" y="149" font-size="18" fill="#497983" font-weight="650" text-anchor="start">PO</text><text x="53" y="173" font-size="13" fill="#497983" font-weight="400" text-anchor="start">100개 · 10,000원</text><line x1="53" y1="188" x2="189" y2="188" stroke="#497983" stroke-width="1" /><rect x="40" y="286" width="163" height="105" rx="3" fill="#f8faf6" stroke="#497983"/><rect x="53" y="299" width="24" height="5" rx="0" fill="#497983" stroke="none"/><text x="53" y="329" font-size="18" fill="#497983" font-weight="650" text-anchor="start">입고</text><text x="53" y="353" font-size="13" fill="#497983" font-weight="400" text-anchor="start">80개</text><line x1="53" y1="368" x2="189" y2="368" stroke="#497983" stroke-width="1" /><rect x="685" y="106" width="168" height="105" rx="3" fill="#f8faf6" stroke="#497983"/><rect x="698" y="119" width="24" height="5" rx="0" fill="#497983" stroke="none"/><text x="698" y="149" font-size="18" fill="#497983" font-weight="650" text-anchor="start">청구</text><text x="698" y="173" font-size="13" fill="#497983" font-weight="400" text-anchor="start">100개 · 10,800원</text><line x1="698" y1="188" x2="839" y2="188" stroke="#497983" stroke-width="1" /><path d="M203 158H308V234H360M203 338H308V271H360M685 158H591V234H539" fill="none" stroke="#4b7e88" stroke-width="3" /><rect x="360" y="192" width="179" height="130" rx="3" fill="#e5ede8" stroke="#437785"/><text x="450" y="238" font-size="24" fill="#2f6170" font-weight="700" text-anchor="middle">3-WAY</text><text x="450" y="263" font-size="24" fill="#2f6170" font-weight="700" text-anchor="middle">MATCH</text><text x="450" y="293" font-size="13" fill="#4f7c7f" font-weight="400" text-anchor="middle">수량 · 단가 대조</text><line x1="360" y1="205" x2="345" y2="205" stroke="#4b7e88" stroke-width="2" /><line x1="539" y1="205" x2="554" y2="205" stroke="#4b7e88" stroke-width="2" /><line x1="360" y1="221" x2="345" y2="221" stroke="#4b7e88" stroke-width="2" /><line x1="539" y1="221" x2="554" y2="221" stroke="#4b7e88" stroke-width="2" /><line x1="360" y1="237" x2="345" y2="237" stroke="#4b7e88" stroke-width="2" /><line x1="539" y1="237" x2="554" y2="237" stroke="#4b7e88" stroke-width="2" /><line x1="360" y1="253" x2="345" y2="253" stroke="#4b7e88" stroke-width="2" /><line x1="539" y1="253" x2="554" y2="253" stroke="#4b7e88" stroke-width="2" /><line x1="360" y1="269" x2="345" y2="269" stroke="#4b7e88" stroke-width="2" /><line x1="539" y1="269" x2="554" y2="269" stroke="#4b7e88" stroke-width="2" /><line x1="360" y1="285" x2="345" y2="285" stroke="#4b7e88" stroke-width="2" /><line x1="539" y1="285" x2="554" y2="285" stroke="#4b7e88" stroke-width="2" /><line x1="360" y1="301" x2="345" y2="301" stroke="#4b7e88" stroke-width="2" /><line x1="539" y1="301" x2="554" y2="301" stroke="#4b7e88" stroke-width="2" /><path d="M450 322V362H623V378" fill="none" stroke="#b08645" stroke-width="3" /><circle cx="623" cy="397" r="20" fill="#efd7a8" stroke="#aa8644" stroke-width="2"/><text x="623" y="403" font-size="20" fill="#86652f" font-weight="650" text-anchor="middle">!</text><text x="663" y="375" font-size="19" fill="#94733d" font-weight="650" text-anchor="start">예외 신호</text><text x="663" y="399" font-size="13" fill="#94733d" font-weight="400" text-anchor="start">20개 / +800원</text><path d="M450 322V407H269" fill="none" stroke="#4b7e88" stroke-width="3" /><rect x="83" y="386" width="186" height="42" rx="3" fill="#dce9df" stroke="#60876b"/><text x="176" y="414" font-size="17" fill="#3c694a" font-weight="650" text-anchor="middle">사람 검토 · 승인</text><rect x="0" y="465" width="900" height="35" rx="0" fill="#f4f6ef" stroke="none"/><line x1="20" y1="464" x2="880" y2="464" stroke="#57797b" stroke-width="1" /><text x="22" y="487" font-size="11" fill="#57797b" font-weight="600" text-anchor="start">스타일 구상 · 미구현</text><text x="878" y="487" font-size="11" fill="#57797b" font-weight="400" text-anchor="end">예시: 발주 100 · 입고 80 · 청구 100 / 단가 10,000 → 10,800원</text></g></svg>