<svg xmlns="http://www.w3.org/2000/svg" viewBox="0 0 900 500" role="img" aria-label="Matchroom 스타일 구상 · 미구현"><defs><pattern id="grid-15" width="30" height="30" patternUnits="userSpaceOnUse"><path d="M30 0H0V30" fill="none" stroke="#6a8877" stroke-opacity=".12"/></pattern></defs><g font-family="Malgun Gothic,Segoe UI,sans-serif"><rect x="0" y="0" width="900" height="500" rx="0" fill="#eef3e9" stroke="none"/><text x="27" y="37" font-size="22" fill="#36564e" font-weight="650" text-anchor="start">TOKEN NETWORK / 상태 전이</text><text x="27" y="66" font-size="14" fill="#799087" font-weight="400" text-anchor="start">필요한 근거가 모이면 다음 상태로</text><circle cx="96" cy="200" r="45" fill="#f4f6ed" stroke="#648579" stroke-width="3"/><text x="96" y="274" font-size="17" fill="#385e51" font-weight="650" text-anchor="middle">발주 접수</text><circle cx="87" cy="200" r="6" fill="#426f5d" stroke="none" stroke-width="2"/><circle cx="105" cy="200" r="6" fill="#426f5d" stroke="none" stroke-width="2"/><circle cx="96" cy="354" r="45" fill="#f4f6ed" stroke="#648579" stroke-width="3"/><text x="96" y="428" font-size="17" fill="#385e51" font-weight="650" text-anchor="middle">입고 접수</text><circle cx="87" cy="354" r="6" fill="#426f5d" stroke="none" stroke-width="2"/><circle cx="105" cy="354" r="6" fill="#426f5d" stroke="none" stroke-width="2"/><circle cx="400" cy="135" r="45" fill="#f4f6ed" stroke="#648579" stroke-width="3"/><text x="400" y="209" font-size="17" fill="#385e51" font-weight="650" text-anchor="middle">대조 준비</text><circle cx="391" cy="135" r="6" fill="#426f5d" stroke="none" stroke-width="2"/><circle cx="409" cy="135" r="6" fill="#426f5d" stroke="none" stroke-width="2"/><circle cx="400" cy="331" r="45" fill="#f4f6ed" stroke="#648579" stroke-width="3"/><text x="400" y="405" font-size="17" fill="#385e51" font-weight="650" text-anchor="middle">예외 발생</text><circle cx="391" cy="331" r="6" fill="#cc9956" stroke="none" stroke-width="2"/><circle cx="409" cy="331" r="6" fill="#cc9956" stroke="none" stroke-width="2"/><circle cx="714" cy="232" r="45" fill="#f4f6ed" stroke="#648579" stroke-width="3"/><text x="714" y="306" font-size="17" fill="#385e51" font-weight="650" text-anchor="middle">승인 대기</text><rect x="251" y="226" width="14" height="89" rx="0" fill="#6e8b7d" stroke="none"/><rect x="559" y="190" width="14" height="96" rx="0" fill="#b4976c" stroke="none"/><path d="M138 210L251 248M138 338L251 292M265 245L358 151M265 285L358 319M441 149L559 209M441 320L559 269M573 238H669" fill="none" stroke="#769387" stroke-width="2.5" /><text x="257" y="342" font-size="16" fill="#608274" font-weight="600" text-anchor="middle">자동 대조</text><text x="565" y="317" font-size="16" fill="#967b4f" font-weight="600" text-anchor="middle">사람 검토</text><text x="79" y="114" font-size="16" fill="#719085" font-weight="400" text-anchor="start">PO 100 · 입고 80</text><text x="326" y="427" font-size="18" fill="#9a7842" font-weight="650" text-anchor="start">예외 토큰: 수량 -20 / 단가 +800</text><text x="711" y="375" font-size="15" fill="#719085" font-weight="400" text-anchor="middle">청구 100개</text><rect x="0" y="465" width="900" height="35" rx="0" fill="#eef3e9" stroke="none"/><line x1="20" y1="464" x2="880" y2="464" stroke="#6a8877" stroke-width="1" /><text x="22" y="487" font-size="11" fill="#6a8877" font-weight="600" text-anchor="start">스타일 구상 · 미구현</text><text x="878" y="487" font-size="11" fill="#6a8877" font-weight="400" text-anchor="end">예시: 발주 100 · 입고 80 · 청구 100 / 단가 10,000 → 10,800원</text></g></svg>