<svg xmlns="http://www.w3.org/2000/svg" viewBox="0 0 900 500" role="img" aria-label="Matchroom 스타일 구상 · 미구현"><defs><pattern id="grid-17" width="30" height="30" patternUnits="userSpaceOnUse"><path d="M30 0H0V30" fill="none" stroke="#a3b2c1" stroke-opacity=".12"/></pattern></defs><g font-family="Malgun Gothic,Segoe UI,sans-serif"><rect x="0" y="0" width="900" height="500" rx="0" fill="#20252c" stroke="none"/><rect x="0" y="0" width="900" height="465" rx="0" fill="#20252c" stroke="none"/><rect x="0" y="0" width="900" height="465" rx="0" fill="url(#grid-17)" stroke="none"/><text x="25" y="35" font-size="13" fill="#a7b5c5" font-weight="650" text-anchor="start">MATCHROOM / NODE WORKSPACE</text><path d="M219 133C286 133 271 247 344 247M219 307C286 307 271 272 344 272M504 130C566 130 533 260 599 260M552 248C573 248 577 260 599 260M783 285C835 285 766 400 678 400" fill="none" stroke="#718bd0" stroke-width="3" /><rect x="38" y="71" width="181" height="112" rx="7" fill="#2d3540" stroke="#5376a6"/><rect x="38" y="71" width="181" height="36" rx="6" fill="#5376a6" stroke="none"/><text x="51" y="95" font-size="14" fill="#eef5fa" font-weight="650" text-anchor="start">PO / 발주</text><text x="51" y="132" font-size="13" fill="#b7c6d6" font-weight="400" text-anchor="start">수량 100</text><text x="51" y="159" font-size="13" fill="#b7c6d6" font-weight="400" text-anchor="start">단가 10,000원</text><circle cx="219" cy="132" r="6" fill="#5376a6" stroke="#171e27" stroke-width="2"/><circle cx="38" cy="132" r="6" fill="#5376a6" stroke="#171e27" stroke-width="2"/><rect x="38" y="246" width="181" height="112" rx="7" fill="#2d3540" stroke="#4d8b83"/><rect x="38" y="246" width="181" height="36" rx="6" fill="#4d8b83" stroke="none"/><text x="51" y="270" font-size="14" fill="#eef5fa" font-weight="650" text-anchor="start">RECEIPT / 입고</text><text x="51" y="307" font-size="13" fill="#b7c6d6" font-weight="400" text-anchor="start">확인 수량 80</text><text x="51" y="334" font-size="13" fill="#b7c6d6" font-weight="400" text-anchor="start">원본 근거 연결</text><circle cx="219" cy="307" r="6" fill="#4d8b83" stroke="#171e27" stroke-width="2"/><circle cx="38" cy="307" r="6" fill="#4d8b83" stroke="#171e27" stroke-width="2"/><rect x="334" y="70" width="170" height="112" rx="7" fill="#2d3540" stroke="#876b9b"/><rect x="334" y="70" width="170" height="36" rx="6" fill="#876b9b" stroke="none"/><text x="347" y="94" font-size="14" fill="#eef5fa" font-weight="650" text-anchor="start">INVOICE / 청구</text><text x="347" y="131" font-size="13" fill="#b7c6d6" font-weight="400" text-anchor="start">수량 100</text><text x="347" y="158" font-size="13" fill="#b7c6d6" font-weight="400" text-anchor="start">단가 10,800원</text><circle cx="504" cy="131" r="6" fill="#876b9b" stroke="#171e27" stroke-width="2"/><circle cx="334" cy="131" r="6" fill="#876b9b" stroke="#171e27" stroke-width="2"/><rect x="344" y="190" width="208" height="139" rx="7" fill="#2d3540" stroke="#577888"/><rect x="344" y="190" width="208" height="36" rx="6" fill="#577888" stroke="none"/><text x="357" y="214" font-size="14" fill="#eef5fa" font-weight="650" text-anchor="start">3자 대조</text><text x="357" y="251" font-size="13" fill="#b7c6d6" font-weight="400" text-anchor="start">품목 일치</text><text x="357" y="278" font-size="13" fill="#b7c6d6" font-weight="400" text-anchor="start">수량 -20</text><text x="357" y="305" font-size="13" fill="#b7c6d6" font-weight="400" text-anchor="start">단가 +800원</text><circle cx="552" cy="251" r="6" fill="#577888" stroke="#171e27" stroke-width="2"/><circle cx="344" cy="251" r="6" fill="#577888" stroke="#171e27" stroke-width="2"/><rect x="599" y="199" width="184" height="112" rx="7" fill="#2d3540" stroke="#a17c49"/><rect x="599" y="199" width="184" height="36" rx="6" fill="#a17c49" stroke="none"/><text x="612" y="223" font-size="14" fill="#eef5fa" font-weight="650" text-anchor="start">예외 분기</text><text x="612" y="260" font-size="13" fill="#b7c6d6" font-weight="400" text-anchor="start">차이 있음</text><text x="612" y="287" font-size="13" fill="#b7c6d6" font-weight="400" text-anchor="start">사람 검토 필요</text><circle cx="783" cy="260" r="6" fill="#a17c49" stroke="#171e27" stroke-width="2"/><circle cx="599" cy="260" r="6" fill="#a17c49" stroke="#171e27" stroke-width="2"/><rect x="572" y="354" width="212" height="85" rx="7" fill="#2d3540" stroke="#547e69"/><rect x="572" y="354" width="212" height="36" rx="6" fill="#547e69" stroke="none"/><text x="585" y="378" font-size="14" fill="#eef5fa" font-weight="650" text-anchor="start">HUMAN / 승인</text><text x="585" y="415" font-size="13" fill="#b7c6d6" font-weight="400" text-anchor="start">근거를 확인한 후 결정</text><circle cx="784" cy="415" r="6" fill="#547e69" stroke="#171e27" stroke-width="2"/><circle cx="572" cy="415" r="6" fill="#547e69" stroke="#171e27" stroke-width="2"/><rect x="0" y="465" width="900" height="35" rx="0" fill="#20252c" stroke="none"/><line x1="20" y1="464" x2="880" y2="464" stroke="#a3b2c1" stroke-width="1" /><text x="22" y="487" font-size="11" fill="#a3b2c1" font-weight="600" text-anchor="start">스타일 구상 · 미구현</text><text x="878" y="487" font-size="11" fill="#a3b2c1" font-weight="400" text-anchor="end">예시: 발주 100 · 입고 80 · 청구 100 / 단가 10,000 → 10,800원</text></g></svg>