<svg xmlns="http://www.w3.org/2000/svg" viewBox="0 0 900 500" role="img" aria-label="Matchroom 스타일 구상 · 미구현"><defs><pattern id="grid-18" width="30" height="30" patternUnits="userSpaceOnUse"><path d="M30 0H0V30" fill="none" stroke="#8a806b" stroke-opacity=".12"/></pattern></defs><g font-family="Malgun Gothic,Segoe UI,sans-serif"><rect x="0" y="0" width="900" height="500" rx="0" fill="#f6f2e9" stroke="none"/><rect x="0" y="0" width="900" height="465" rx="0" fill="#f6f2e9" stroke="none"/><text x="26" y="38" font-size="12" fill="#a58369" font-weight="650" text-anchor="start">MATCHROOM / A DOCUMENT STORY</text><text x="26" y="76" font-size="29" fill="#4b463c" font-weight="650" text-anchor="start">한 주문의 정산 이야기</text><text x="872" y="64" font-size="13" fill="#9a8d77" font-weight="400" text-anchor="end">스크롤로 따라가는 업무</text><line x1="62" y1="158" x2="832" y2="158" stroke="#baa486" stroke-width="2" /><circle cx="48" cy="158" r="16" fill="#f6f2e9" stroke="#baa486" stroke-width="2"/><text x="48" y="163" font-size="12" fill="#978067" font-weight="650" text-anchor="middle">01</text><rect x="28" y="189" width="188" height="183" rx="1" fill="#e0c7a2" stroke="none"/><text x="39" y="396" font-size="17" fill="#5d5447" font-weight="650" text-anchor="start">주문이 도착하다</text><text x="39" y="421" font-size="13" fill="#8b7b64" font-weight="400" text-anchor="start">PO 100개</text><rect x="57" y="219" width="129" height="119" rx="3" fill="#f9f3df" stroke="#94784f"/><rect x="70" y="232" width="24" height="5" rx="0" fill="#94784f" stroke="none"/><text x="70" y="262" font-size="18" fill="#94784f" font-weight="650" text-anchor="start">PO</text><text x="70" y="286" font-size="13" fill="#94784f" font-weight="400" text-anchor="start">100개</text><line x1="70" y1="301" x2="172" y2="301" stroke="#94784f" stroke-width="1" /><circle cx="267" cy="158" r="16" fill="#f6f2e9" stroke="#baa486" stroke-width="2"/><text x="267" y="163" font-size="12" fill="#978067" font-weight="650" text-anchor="middle">02</text><rect x="247" y="189" width="188" height="183" rx="1" fill="#b6cbb4" stroke="none"/><text x="258" y="396" font-size="17" fill="#5d5447" font-weight="650" text-anchor="start">80개만 입고되다</text><text x="258" y="421" font-size="13" fill="#8b7b64" font-weight="400" text-anchor="start">입고 기록 80개</text><rect x="277" y="234" width="27" height="32" rx="2" fill="#e5e8d3" stroke="#71866b"/><rect x="309" y="234" width="27" height="32" rx="2" fill="#e5e8d3" stroke="#71866b"/><rect x="341" y="234" width="27" height="32" rx="2" fill="#e5e8d3" stroke="#71866b"/><rect x="373" y="234" width="27" height="32" rx="2" fill="#e5e8d3" stroke="#71866b"/><rect x="277" y="273" width="27" height="32" rx="2" fill="#e5e8d3" stroke="#71866b"/><rect x="309" y="273" width="27" height="32" rx="2" fill="#e5e8d3" stroke="#71866b"/><rect x="341" y="273" width="27" height="32" rx="2" fill="#e5e8d3" stroke="#71866b"/><rect x="373" y="273" width="27" height="32" rx="2" fill="#e5e8d3" stroke="#71866b"/><text x="340" y="342" font-size="20" fill="#53724e" font-weight="650" text-anchor="middle">80 / 100</text><circle cx="486" cy="158" r="16" fill="#f6f2e9" stroke="#baa486" stroke-width="2"/><text x="486" y="163" font-size="12" fill="#978067" font-weight="650" text-anchor="middle">03</text><rect x="466" y="189" width="188" height="183" rx="1" fill="#d5c0b5" stroke="none"/><text x="477" y="396" font-size="17" fill="#5d5447" font-weight="650" text-anchor="start">청구가 다르게 오다</text><text x="477" y="421" font-size="13" fill="#8b7b64" font-weight="400" text-anchor="start">100개 × 10,800원</text><rect x="495" y="219" width="129" height="119" rx="3" fill="#f8f2e8" stroke="#937b68"/><rect x="508" y="232" width="24" height="5" rx="0" fill="#937b68" stroke="none"/><text x="508" y="262" font-size="18" fill="#937b68" font-weight="650" text-anchor="start">INVOICE</text><text x="508" y="286" font-size="13" fill="#937b68" font-weight="400" text-anchor="start">10,800원</text><line x1="508" y1="301" x2="610" y2="301" stroke="#937b68" stroke-width="1" /><circle cx="705" cy="158" r="16" fill="#f6f2e9" stroke="#baa486" stroke-width="2"/><text x="705" y="163" font-size="12" fill="#978067" font-weight="650" text-anchor="middle">04</text><rect x="685" y="189" width="188" height="183" rx="1" fill="#c9cebd" stroke="none"/><text x="696" y="396" font-size="17" fill="#5d5447" font-weight="650" text-anchor="start">차이를 판단하다</text><text x="696" y="421" font-size="13" fill="#8b7b64" font-weight="400" text-anchor="start">20개 / +800원</text><circle cx="777" cy="270" r="45" fill="#eef0df" stroke="#809071" stroke-width="2"/><text x="777" y="278" font-size="26" fill="#677955" font-weight="650" text-anchor="middle">Δ20</text><text x="777" y="342" font-size="18" fill="#637451" font-weight="650" text-anchor="middle">사람 승인</text><rect x="0" y="465" width="900" height="35" rx="0" fill="#f6f2e9" stroke="none"/><line x1="20" y1="464" x2="880" y2="464" stroke="#8a806b" stroke-width="1" /><text x="22" y="487" font-size="11" fill="#8a806b" font-weight="600" text-anchor="start">스타일 구상 · 미구현</text><text x="878" y="487" font-size="11" fill="#8a806b" font-weight="400" text-anchor="end">예시: 발주 100 · 입고 80 · 청구 100 / 단가 10,000 → 10,800원</text></g></svg>