<svg xmlns="http://www.w3.org/2000/svg" viewBox="0 0 900 500" role="img" aria-label="두 기준씩 고르고 가중치를 읽다 · 미구현 시안 · 합성 예시"><g font-family="Malgun Gothic,Segoe UI,sans-serif"><rect x="0" y="0" width="900" height="500" rx="0" fill="#f7f8f5" stroke="none"/><text x="30" y="31" font-size="16" fill="#566976" font-weight="600" text-anchor="start">32 / PAIRWISE CRITERION DECISIONS</text><text x="30" y="67" font-size="28" fill="#203340" font-weight="650" text-anchor="start">두 기준씩 고르고 가중치를 읽다</text><text x="30" y="96" font-size="16" fill="#566976" font-weight="400" text-anchor="start">개별 판단을 행렬과 가중치로 펼쳐 검토 우선순위의 근거를 공개합니다.</text><text x="31" y="141" font-size="18" fill="#203340" font-weight="650" text-anchor="start">01 / 기준을 두 개씩 비교</text><rect x="30" y="158" width="337" height="149" rx="0" fill="#ffffff" stroke="#b9c7cd"/><text x="48" y="193" font-size="20" fill="#167d8d" font-weight="650" text-anchor="start">근거 완전성</text><text x="348" y="193" font-size="20" fill="#566976" font-weight="500" text-anchor="end">납기</text><line x1="53" y1="238" x2="341" y2="238" stroke="#b9c7cd" stroke-width="4"/><circle cx="197" cy="238" r="8" fill="#b97822" stroke="none"/><text x="53" y="269" font-size="16" fill="#566976" font-weight="400" text-anchor="start">더 중요</text><text x="197" y="269" font-size="16" fill="#566976" font-weight="400" text-anchor="middle">동등</text><text x="341" y="269" font-size="16" fill="#566976" font-weight="400" text-anchor="end">더 중요</text><text x="48" y="297" font-size="16" fill="#566976" font-weight="400" text-anchor="start">이 예시: 모든 기준을 동등하게 선택</text><line x1="380" y1="233" x2="421" y2="233" stroke="#167d8d" stroke-width="2"/><path d="M414 228 L421 233 L414 238" fill="none" stroke="#167d8d" stroke-width="2"/><text x="442" y="141" font-size="18" fill="#203340" font-weight="650" text-anchor="start">02 / 판단 행렬</text><text x="514" y="158" font-size="16" fill="#203340" font-weight="600" text-anchor="middle">근거</text><text x="592" y="158" font-size="16" fill="#203340" font-weight="600" text-anchor="middle">납기</text><text x="670" y="158" font-size="16" fill="#203340" font-weight="600" text-anchor="middle">금액</text><text x="468" y="194" font-size="16" fill="#203340" font-weight="600" text-anchor="end">근거</text><rect x="483" y="165" width="78" height="46" rx="0" fill="#e9eeef" stroke="#b9c7cd"/><text x="522" y="195" font-size="20" fill="#203340" font-weight="600" text-anchor="middle">1</text><rect x="561" y="165" width="78" height="46" rx="0" fill="#dbedf0" stroke="#b9c7cd"/><text x="600" y="195" font-size="20" fill="#203340" font-weight="600" text-anchor="middle">1</text><rect x="639" y="165" width="78" height="46" rx="0" fill="#dbedf0" stroke="#b9c7cd"/><text x="678" y="195" font-size="20" fill="#203340" font-weight="600" text-anchor="middle">1</text><text x="468" y="240" font-size="16" fill="#203340" font-weight="600" text-anchor="end">납기</text><rect x="483" y="211" width="78" height="46" rx="0" fill="#dbedf0" stroke="#b9c7cd"/><text x="522" y="241" font-size="20" fill="#203340" font-weight="600" text-anchor="middle">1</text><rect x="561" y="211" width="78" height="46" rx="0" fill="#e9eeef" stroke="#b9c7cd"/><text x="600" y="241" font-size="20" fill="#203340" font-weight="600" text-anchor="middle">1</text><rect x="639" y="211" width="78" height="46" rx="0" fill="#dbedf0" stroke="#b9c7cd"/><text x="678" y="241" font-size="20" fill="#203340" font-weight="600" text-anchor="middle">1</text><text x="468" y="286" font-size="16" fill="#203340" font-weight="600" text-anchor="end">금액</text><rect x="483" y="257" width="78" height="46" rx="0" fill="#dbedf0" stroke="#b9c7cd"/><text x="522" y="287" font-size="20" fill="#203340" font-weight="600" text-anchor="middle">1</text><rect x="561" y="257" width="78" height="46" rx="0" fill="#dbedf0" stroke="#b9c7cd"/><text x="600" y="287" font-size="20" fill="#203340" font-weight="600" text-anchor="middle">1</text><rect x="639" y="257" width="78" height="46" rx="0" fill="#e9eeef" stroke="#b9c7cd"/><text x="678" y="287" font-size="20" fill="#203340" font-weight="600" text-anchor="middle">1</text><text x="738" y="192" font-size="16" fill="#566976" font-weight="400" text-anchor="start">대각선 = 1</text><text x="738" y="235" font-size="16" fill="#566976" font-weight="400" text-anchor="start">상호 역수</text><text x="738" y="278" font-size="16" fill="#167d8d" font-weight="600" text-anchor="start">동등 예시</text><text x="30" y="347" font-size="18" fill="#203340" font-weight="650" text-anchor="start">03 / 합성 가중치</text><text x="30" y="381" font-size="18" fill="#203340" font-weight="600" text-anchor="start">근거 완전성</text><rect x="30" y="394" width="251" height="18" rx="0" fill="#e3e9e9" stroke="none"/><rect x="30" y="394" width="84" height="18" rx="0" fill="#167d8d" stroke="none"/><text x="281" y="435" font-size="24" fill="#167d8d" font-weight="650" text-anchor="end">1/3</text><text x="310" y="381" font-size="18" fill="#203340" font-weight="600" text-anchor="start">납기</text><rect x="310" y="394" width="251" height="18" rx="0" fill="#e3e9e9" stroke="none"/><rect x="310" y="394" width="84" height="18" rx="0" fill="#167d8d" stroke="none"/><text x="561" y="435" font-size="24" fill="#167d8d" font-weight="650" text-anchor="end">1/3</text><text x="590" y="381" font-size="18" fill="#203340" font-weight="600" text-anchor="start">금액</text><rect x="590" y="394" width="251" height="18" rx="0" fill="#e3e9e9" stroke="none"/><rect x="590" y="394" width="84" height="18" rx="0" fill="#167d8d" stroke="none"/><text x="841" y="435" font-size="24" fill="#167d8d" font-weight="650" text-anchor="end">1/3</text><text x="443" y="330" font-size="16" fill="#566976" font-weight="400" text-anchor="start">가중치는 판단에서 도출 · 실측 성과 아님</text><line x1="30" y1="460" x2="870" y2="460" stroke="#b9c7cd" stroke-width="1"/><text x="30" y="486" font-size="16" fill="#566976" font-weight="600" text-anchor="start">미구현 시안 · 합성 예시</text><text x="870" y="486" font-size="16" fill="#566976" font-weight="400" text-anchor="end">STATIC CONCEPT STUDY</text></g></svg>
